<svg style="display: none;" xmlns="http://www.w3.org/2000/svg">
  <symbol id="header-phone" viewBox="0 0 24 24" style="width:24px;height:24px;">
    <path
      d="M23.9886 18.9283C24.0394 19.3179 23.9207 19.6567 23.6329 19.9446L20.2537 23.2982C20.1013 23.4676 19.9023 23.6117 19.6567 23.7301C19.4111 23.8487 19.1698 23.925 18.9327 23.9588C18.9158 23.9588 18.8648 23.9632 18.7801 23.9716C18.6955 23.98 18.5854 23.9844 18.4499 23.9844C18.128 23.9844 17.6071 23.9293 16.8873 23.8192C16.1674 23.709 15.2867 23.438 14.2451 23.0062C13.2032 22.5742 12.0218 21.9263 10.7007 21.0625C9.37955 20.1988 7.97364 19.013 6.48309 17.5055C5.29743 16.3368 4.31502 15.2189 3.53587 14.1518C2.75671 13.0847 2.13001 12.098 1.65574 11.1918C1.18143 10.2857 0.825732 9.46415 0.588598 8.72735C0.351465 7.99054 0.190553 7.35536 0.105863 6.82181C0.0211726 6.28826 -0.0127036 5.86905 0.00423452 5.56416C0.0211726 5.25927 0.0296416 5.08989 0.0296416 5.05602C0.0635178 4.81888 0.139739 4.57752 0.258306 4.33191C0.376872 4.08631 0.520846 3.88729 0.690227 3.73485L4.06937 0.3557C4.30651 0.118567 4.57752 0 4.8824 0C5.1026 0 5.29739 0.0635178 5.46677 0.190553C5.63615 0.317589 5.78012 0.474266 5.89869 0.660585L8.61725 5.81823C8.76969 6.08924 8.81204 6.38566 8.74428 6.70748C8.67653 7.0293 8.53256 7.30031 8.31236 7.52051L7.06742 8.76546C7.03354 8.79933 7.0039 8.85438 6.97849 8.9306C6.95308 9.00683 6.94038 9.07034 6.94038 9.12116C7.00813 9.47686 7.16057 9.88337 7.39771 10.3407C7.60096 10.7472 7.91432 11.2427 8.33777 11.827C8.76122 12.4114 9.36252 13.0846 10.1417 13.8468C10.9039 14.6261 11.5814 15.2315 12.1742 15.6635C12.767 16.0953 13.2626 16.413 13.6606 16.6163C14.0587 16.8195 14.3635 16.9423 14.5752 16.9845L14.8927 17.0481C14.9266 17.0481 14.9818 17.0354 15.0579 17.01C15.1341 16.9845 15.1892 16.9549 15.2231 16.921L16.6713 15.4474C16.9763 15.1764 17.3319 15.0409 17.7384 15.0409C18.0264 15.0409 18.255 15.0917 18.4244 15.1934H18.4497L23.3533 18.0898C23.7091 18.3102 23.9208 18.5895 23.9886 18.9283Z"/>
  </symbol>
  <symbol id="thumb-up-icon" viewBox="0 0 37 35">
    <g>
      <path
        d="M6.85724 12.6665H2.05721C1.39452 12.6665 0.857178 13.2038 0.857178 13.8665V33.0664C0.857178 33.7291 1.39444 34.2664 2.05721 34.2664H6.85717C7.51986 34.2664 8.05719 33.7291 8.05719 33.0664V13.8665C8.05719 13.2038 7.52002 12.6665 6.85724 12.6665Z"/>
      <path
        d="M36.8335 15.8474C36.6218 13.9859 34.8829 12.6665 33.0094 12.6665H23.6539C24.449 11.2428 24.8758 7.21613 24.8568 5.57122C24.8255 2.84843 22.5706 0.666504 19.8478 0.666504H18.8576C18.1943 0.666504 17.6575 1.2032 17.6575 1.86653C17.6575 4.64145 16.577 9.65012 14.5392 11.688C13.1676 13.0596 11.995 13.5566 10.4575 14.325V32.3309C12.8115 33.1155 15.8003 34.2664 20.3559 34.2664H28.2057C30.7921 34.2664 32.8066 31.8709 31.8043 29.3399C33.3313 28.924 34.4574 27.5235 34.4574 25.8665C34.4574 25.3988 34.3672 24.9512 34.2043 24.5399C36.7775 23.8388 37.7247 20.6615 35.9387 18.6665C36.5948 17.9334 36.9567 16.9308 36.8335 15.8474Z"/>
    </g>
  </symbol>
  <symbol id="phone-icon" viewBox="-5 0 40 40">
    <g>
      <path
        d="M19.7405 0H2.91087C1.3002 0 0 1.30603 0 2.91378V37.0891C0 38.6954 1.3002 40 2.91087 40H19.7405C21.3483 40 22.6514 38.6954 22.6514 37.0891V2.91378C22.6514 1.30603 21.3483 0 19.7405 0ZM7.17295 1.76955H15.4814C15.6913 1.76955 15.8618 2.08294 15.8618 2.47067C15.8618 2.85839 15.6913 3.17324 15.4814 3.17324H7.17295C6.96159 3.17324 6.79397 2.85839 6.79397 2.47067C6.79397 2.08294 6.96159 1.76955 7.17295 1.76955ZM11.3272 37.1241C10.3025 37.1241 9.4687 36.2904 9.4687 35.2642C9.4687 34.238 10.3025 33.4072 11.3272 33.4072C12.349 33.4072 13.1827 34.238 13.1827 35.2642C13.1827 36.2904 12.349 37.1241 11.3272 37.1241ZM20.4708 30.7558H2.18206V4.91655H20.4708V30.7558Z"/>
    </g>
  </symbol>
  <symbol id="loupe-icon" viewBox="0 0 40 40">
    <g>
      <path
        d="M26.7108 4.57646C20.6088 -1.52549 10.6774 -1.52549 4.57547 4.57646C-1.52516 10.6797 -1.52516 20.6098 4.57547 26.7131C10.0094 32.1457 18.4725 32.7277 24.5705 28.4856C24.6988 29.0927 24.9925 29.6721 25.4647 30.1443L34.3511 39.0307C35.6461 40.3231 37.7387 40.3231 39.0271 39.0307C40.3208 37.7371 40.3208 35.6444 39.0271 34.3547L30.1407 25.4657C29.6711 24.9974 29.0904 24.7025 28.4833 24.5742C32.7281 18.4748 32.146 10.0131 26.7108 4.57646ZM23.9052 23.9075C19.3495 28.4631 11.9354 28.4631 7.38107 23.9075C2.82809 19.3518 2.82809 11.939 7.38107 7.38339C11.9354 2.82908 19.3495 2.82908 23.9052 7.38339C28.4608 11.939 28.4608 19.3518 23.9052 23.9075Z"/>
    </g>
  </symbol>
  <symbol id="traces-icon" viewBox="0 0 37 40">
    <g>
      <path
        d="M16.2217 25.4568C14.6713 24.841 12.9139 25.057 11.559 26.0299C10.2042 27.0026 9.4378 28.5988 9.52578 30.2647L9.76752 34.8505C9.83385 36.1066 10.7149 37.1711 11.936 37.4713C13.1579 37.7709 14.4318 37.2353 15.0723 36.1521L15.0725 36.1511C16.1528 34.324 17.9498 33.0336 20.0273 32.5943C21.2578 32.334 22.1727 31.2985 22.2795 30.0448C22.3859 28.7915 21.6586 27.6161 20.4897 27.1517L16.2217 25.4568Z"/>
      <path
        d="M7.68682 31.126C8.3569 30.106 7.9283 28.6415 6.73073 27.8559C5.53305 27.0706 4.01888 27.2603 3.35022 28.2802C2.68084 29.2997 3.10987 30.7635 4.30685 31.5499C5.50448 32.3347 7.01894 32.1452 7.68682 31.126Z"/>
      <path
        d="M9.90951 26.55C11.1149 25.6845 11.2683 23.8348 10.2522 22.4196C9.23564 21.0038 7.43397 20.558 6.22857 21.4235C5.02349 22.2888 4.86998 24.1384 5.88657 25.5542C6.9027 26.9694 8.70443 27.4152 9.90951 26.55Z"/>
      <path
        d="M14.5269 24.3894C15.9437 23.9482 16.6727 22.241 16.1549 20.5775C15.6371 18.9135 14.0675 17.9224 12.6514 18.3632C11.2346 18.8045 10.5056 20.5117 11.0239 22.1752C11.5419 23.839 13.1108 24.8302 14.5269 24.3894Z"/>
      <path
        d="M19.4347 20.2813C18.2145 20.2647 17.2088 21.411 17.1879 22.8436C17.1681 24.2759 18.1405 25.4511 19.3591 25.4688C20.5777 25.487 21.5847 24.3394 21.6061 22.9067C21.6259 21.4745 20.6531 20.2992 19.4347 20.2813Z"/>
      <path
        d="M28.0201 11.8704C27.5305 10.3326 26.2916 9.1498 24.733 8.73218C23.1746 8.3146 21.5103 8.71943 20.3175 9.80648L17.0337 12.7984C16.1344 13.618 15.8778 14.9299 16.4016 16.0277C16.9265 17.1258 18.1082 17.7509 19.3114 17.5662L19.3123 17.5657C21.3419 17.2542 23.4091 17.8081 25.0114 19.0935C25.9604 19.8549 27.2962 19.9048 28.2999 19.2162C29.3031 18.5276 29.7369 17.2628 29.3678 16.1034L28.0201 11.8704Z"/>
      <path
        d="M18.5454 8.95852C19.7195 8.83471 20.5527 7.61627 20.4066 6.23844C20.2601 4.8608 19.19 3.84392 18.0168 3.96869C16.8435 4.09268 16.0111 5.31104 16.1563 6.6889C16.3031 8.06622 17.3732 9.08347 18.5454 8.95852Z"/>
      <path
        d="M23.3325 7.817C24.7191 8.18855 26.1974 7.16953 26.6336 5.5416C27.07 3.91299 26.2993 2.29138 24.9127 1.91984C23.5264 1.5484 22.0481 2.56732 21.6117 4.19598C21.1755 5.82391 21.9463 7.44556 23.3325 7.817Z"/>
      <path
        d="M27.7798 9.94778C28.9785 10.7376 30.703 10.2367 31.6305 8.82943C32.5584 7.42202 32.338 5.63985 31.1401 4.85025C29.9413 4.06042 28.2168 4.56132 27.2896 5.96896C26.362 7.37649 26.5819 9.15819 27.7798 9.94778Z"/>
      <path
        d="M33.8625 11.1025C33.127 10.1793 31.6526 10.1292 30.5677 10.9918C29.4837 11.855 29.2003 13.3031 29.934 14.2259C30.6674 15.149 32.1435 15.1991 33.2288 14.3369C34.3128 13.4738 34.596 12.0253 33.8625 11.1025Z"/>
    </g>
  </symbol>

  <symbol id="check-mark-icon" viewBox="0 0 40 40">
    <g>
      <path
        d="M39.9876 17.6783V17.678C39.9223 17.0548 39.5995 16.4805 39.102 16.0999L36.8254 14.3275L37.6811 11.504C37.8636 10.9015 37.7879 10.2433 37.4733 9.69761C37.1583 9.15226 36.6261 8.75767 36.013 8.61424L33.1489 7.94559L32.7833 5.02749C32.7049 4.40249 32.368 3.83181 31.8589 3.46255C31.3493 3.09176 30.702 2.94741 30.084 3.06643L27.1955 3.62032L25.6742 1.10292C25.0688 0.101024 23.7974 -0.277395 22.7177 0.221874C22.6417 0.25697 22.5685 0.299084 22.5047 0.34425L19.9976 2.09047L17.584 0.409253C17.0673 0.0497546 16.4182 -0.0811662 15.8024 0.0494494C15.1865 0.180065 14.6464 0.564588 14.3207 1.10353L12.8001 3.62063L9.91125 3.06643C9.29265 2.94802 8.64598 3.09237 8.13725 3.46224C7.62761 3.83242 7.29069 4.4031 7.21257 5.02749L6.84697 7.9459L3.81778 8.65299L3.67557 8.69938L3.62308 8.72227C2.52261 9.20353 1.97207 10.3736 2.31448 11.504L3.16989 14.3275L0.795617 16.1744L0.657983 16.294L0.619225 16.3364C-0.177591 17.2068 -0.208719 18.5233 0.545067 19.4035L2.4039 21.6264L0.897241 24.3604L0.837121 24.4972L0.819726 24.5481C0.444054 25.6709 0.955835 26.891 2.00992 27.3857L4.67228 28.6351L4.42295 31.5654C4.36954 32.1931 4.58072 32.8215 5.00187 33.289C5.42301 33.7568 6.02574 34.0324 6.65562 34.0452L9.596 34.1038L10.5604 36.8819C10.7667 37.4769 11.215 37.9652 11.7899 38.221C12.3649 38.477 13.0274 38.4837 13.6085 38.2393L16.3187 37.097L18.4461 39.3672L18.5575 39.4664L18.6005 39.4984C19.0208 39.8088 19.5118 39.9608 19.9983 39.9608C20.6138 39.9608 21.2217 39.7173 21.6664 39.2427L23.6775 37.097L26.388 38.2396C26.9679 38.4837 27.6301 38.477 28.2051 38.2213C28.7806 37.9652 29.2289 37.4769 29.4352 36.8822L30.3999 34.1038L33.5103 34.0419L33.658 34.0257L33.7111 34.015C34.8707 33.7785 35.6712 32.7253 35.5726 31.5657L35.3236 28.6351L37.9863 27.3857C38.5561 27.1183 38.9946 26.6215 39.1893 26.0224C39.3837 25.4237 39.3211 24.7639 39.0172 24.2124L37.592 21.6264L39.4511 19.4035C39.8573 18.9289 40.0529 18.3009 39.9876 17.6783ZM20.1222 29.9434C14.6299 29.9434 10.1615 25.475 10.1615 19.9827C10.1615 14.4901 14.6299 10.022 20.1222 10.022C25.6147 10.022 30.0831 14.4901 30.0831 19.9827C30.0831 25.475 25.6144 29.9434 20.1222 29.9434Z"/>
      <path
        d="M20.1222 12.3672C15.9233 12.3672 12.5068 15.7833 12.5068 19.9826C12.5068 24.1815 15.9233 27.5976 20.1222 27.5976C24.3215 27.5976 27.7376 24.1815 27.7376 19.9826C27.7376 15.7833 24.3215 12.3672 20.1222 12.3672ZM24.6437 18.5482L19.1878 24.0039C18.9589 24.2331 18.6589 24.3475 18.3586 24.3475C18.0586 24.3475 17.7583 24.2331 17.5294 24.0039L15.4448 21.9192C14.9867 21.4612 14.9867 20.7187 15.4448 20.2606C15.9025 19.8028 16.645 19.8028 17.1031 20.2606L18.3589 21.5164L22.9854 16.8899C23.4432 16.4318 24.186 16.4318 24.6437 16.8899C25.1018 17.3477 25.1018 18.0902 24.6437 18.5482Z"/>
    </g>
  </symbol>

  <symbol id="X-icon" viewBox="0 0 79 78">
    <g>
      <rect x="59.6426" y="0.335205" width="27.1002" height="82.2857" rx="13.5501"
            transform="rotate(45 59.6426 0.335205)" fill="#FF865F"/>
      <rect x="77.3474" y="58.52" width="27.1002" height="82.2857" rx="13.5501" transform="rotate(135 77.3474 58.52)"
            fill="#FF865F"/>
    </g>
  </symbol>
  <!-- зелёные иконки -->
  <symbol id="shield-icon" viewBox="0 0 66 78">
    <g>
      <path
        d="M65.431 20.0756C65.391 17.9705 65.3528 15.9819 65.3528 14.0581C65.3528 12.5509 64.1312 11.3289 62.6237 11.3289C50.9522 11.3289 42.0658 7.97469 34.6587 0.772748C33.5991 -0.257764 31.9128 -0.257401 30.8536 0.772748C23.4471 7.97469 14.5622 11.3289 2.89147 11.3289C1.38427 11.3289 0.162355 12.5509 0.162355 14.0581C0.162355 15.9823 0.124511 17.9716 0.0841204 20.077C-0.28995 39.6669 -0.802292 66.4963 31.8622 77.8184C32.1519 77.9189 32.4539 77.9691 32.7559 77.9691C33.058 77.9691 33.3603 77.9189 33.6496 77.8184C66.3167 66.4959 65.8051 39.6658 65.431 20.0756ZM32.7563 72.3438C4.74217 62.1672 5.16572 39.874 5.54161 20.1811C5.56417 18.9992 5.58601 17.8537 5.60129 16.7308C16.5323 16.2694 25.2734 12.957 32.7563 6.43838C40.2399 12.957 48.9825 16.2697 59.9142 16.7308C59.9295 17.8533 59.9513 18.9981 59.9739 20.1793C60.3494 39.8729 60.7726 62.1668 32.7563 72.3438Z"
        fill="#5EAF28"/>
      <path
        d="M42.1543 29.504L28.9822 42.6754L23.3613 37.0545C22.2955 35.9891 20.5674 35.9891 19.502 37.0545C18.4362 38.1207 18.4362 39.8484 19.502 40.9142L27.0525 48.4648C27.5853 48.9975 28.2839 49.2639 28.9822 49.2639C29.6805 49.2639 30.3791 48.9975 30.9119 48.4648L46.0133 33.3637C47.0795 32.2979 47.0795 30.5698 46.0137 29.5044C44.9482 28.4386 43.2201 28.4382 42.1543 29.504Z"
        fill="#5EAF28"/>
    </g>
  </symbol>
  <symbol id="shout-icon" viewBox="0 0 78 77">
    <g>
      <path
        d="M70.3417 0.508301C66.2588 0.508301 62.9154 3.73305 62.7235 7.76932C54.8045 10.4845 41.6034 15.7631 21.1872 15.7631H17.7974C14.4129 15.7631 11.5376 17.9798 10.5432 21.037C4.56393 22.0698 0 27.2905 0 33.5605C0 39.8305 4.56393 45.051 10.5432 46.0838C11.3987 48.7137 13.6463 50.7196 16.4123 51.2295L19.6587 70.4268C20.2816 74.1094 23.4445 76.7825 27.1795 76.7825C31.8263 76.7825 35.3575 72.6067 34.5945 68.0292L31.9046 51.8896C46.204 53.2832 54.0678 56.3838 62.7235 59.3517C62.9154 63.3879 66.2588 66.6127 70.3417 66.6127C74.5474 66.6127 77.9691 63.191 77.9691 58.9853V8.13572C77.9691 3.92996 74.5474 0.508301 70.3417 0.508301ZM10.1699 40.7521C7.21031 39.7028 5.08505 36.8751 5.08505 33.5605C5.08505 30.2459 7.21031 27.418 10.1699 26.3688V40.7521ZM27.1794 71.6974C25.9345 71.6974 24.8802 70.8064 24.6725 69.5789L21.5915 51.3597C23.2773 51.3662 24.9778 51.4127 26.6846 51.5002L29.5788 68.8651C29.8259 70.3486 28.6839 71.6974 27.1794 71.6974ZM30.0012 46.6209C27.0464 46.3919 24.0932 46.2726 21.1873 46.2726H17.7974C16.3954 46.2728 15.2548 45.1322 15.2548 43.7303V23.3906C15.2548 21.9886 16.3954 20.848 17.7974 20.848H21.1873C24.0934 20.848 27.0466 20.7286 30.0012 20.4998V46.6209ZM62.7142 53.9727C55.9218 51.644 48.4022 48.7252 35.0861 47.1231V19.9977C48.276 18.4109 55.7152 15.5475 62.7142 13.148V53.9727ZM72.8842 58.9851C72.8842 60.387 71.7436 61.5276 70.3417 61.5276C68.9398 61.5276 67.7991 60.387 67.7991 58.9851C67.7991 58.3257 67.7991 8.84109 67.7991 8.13572C67.7991 6.7338 68.9398 5.59319 70.3417 5.59319C71.7436 5.59319 72.8842 6.7338 72.8842 8.13572V58.9851Z"
        fill="#5EAF28"/>
    </g>
  </symbol>
  <symbol id="letter-icon" viewBox="0 0 72 57">
    <g>
      <path
        d="M71.3027 31.5977L60.625 2.73574C60.2372 1.68699 59.4641 0.852236 58.448 0.385153C57.4322 -0.0819298 56.2954 -0.125788 55.2466 0.262351L3.18091 19.5242C2.13217 19.9122 1.29741 20.6854 0.830146 21.701C0.363063 22.7169 0.319389 23.8539 0.707346 24.9025L11.385 53.7644C11.7728 54.8131 12.546 55.6479 13.562 56.1152C14.1194 56.3715 14.7131 56.5002 15.3088 56.5002C15.7989 56.5002 16.2901 56.4132 16.7636 56.238L68.8295 36.9761H68.8297C70.9939 36.1751 72.1035 33.7624 71.3027 31.5977ZM52.3847 5.78439L36.2347 28.8725L8.94672 21.8543L52.3847 5.78439ZM14.5561 50.2728L5.2943 25.2374L26.7447 30.7547L14.5561 50.2728ZM19.0915 50.9135L30.9974 31.8482L36.5969 33.2886C36.7707 33.3326 36.9465 33.3556 37.1181 33.3556C37.792 33.3556 38.4367 33.0291 38.8344 32.4619L42.148 27.7208L63.596 34.449L19.0915 50.9135ZM44.6662 24.124L57.3598 5.97352L66.6253 31.0124L44.6662 24.124Z"
        fill="#5EAF28"/>
    </g>
  </symbol>
  <symbol id="battery-icon" viewBox="0 0 78 39">
    <g>
      <path
        d="M73.096 7.3096H68.2229C68.2229 3.27957 64.9434 0 60.9133 0H7.3096C3.27957 0 0 3.27957 0 7.3096V31.6749C0 35.705 3.27957 38.9845 7.3096 38.9845H60.9133C64.9434 38.9845 68.2229 35.705 68.2229 31.6749H73.096C75.7859 31.6749 77.9691 29.4918 77.9691 26.8019V12.1827C77.9691 9.49517 75.7859 7.3096 73.096 7.3096ZM63.3499 31.6749C63.3499 33.0199 62.2583 34.1115 60.9133 34.1115H7.3096C5.96463 34.1115 4.87307 33.0199 4.87307 31.6749V7.3096C4.87307 5.96463 5.96463 4.87307 7.3096 4.87307H60.9133C62.2583 4.87307 63.3499 5.96463 63.3499 7.3096V31.6749ZM73.096 26.8019H68.2229V12.1827H73.096V26.8019ZM46.0383 11.9268C45.4365 10.7256 43.8527 9.74614 42.5126 9.74614H12.1827C10.8426 9.74614 9.74614 10.8426 9.74614 12.1827V26.8019C9.74614 28.142 10.8426 29.2384 12.1827 29.2384H52.2563C53.5964 29.2384 54.2031 28.2589 53.6037 27.0577L46.0383 11.9268Z"
        fill="#5EAF28"/>
    </g>
  </symbol>
  <symbol id="paw-icon" viewBox="0 0 30 27">
    <g>
      <path
        d="M20.2579 13.7304C18.9002 11.6123 16.5574 10.3311 14.0418 10.3311C11.5266 10.3311 9.1837 11.6122 7.8261 13.7304L4.08854 19.5608C3.06495 21.1579 3.20787 23.237 4.43969 24.6787C5.6731 26.1205 7.70473 26.5849 9.44213 25.8214L9.44329 25.8203C12.3738 24.5323 15.7103 24.5323 18.6417 25.8214C20.378 26.5849 22.4097 26.1211 23.6432 24.6793C24.8761 23.2375 25.019 21.1579 23.9954 19.5608L20.2579 13.7304Z"/>
      <path
        d="M4.81635 13.1685C6.53447 12.5083 7.29755 10.3373 6.52156 8.32145C5.74507 6.30604 3.72329 5.20656 2.00707 5.86779C0.290301 6.52792 -0.471682 8.69849 0.30291 10.7148C1.07977 12.7296 3.10166 13.8296 4.81635 13.1685Z"/>
      <path
        d="M11.5641 9.51784C13.802 9.51784 15.617 7.38687 15.617 4.75944C15.617 2.13091 13.802 0 11.5641 0C9.32673 0 7.51172 2.13085 7.51172 4.75944C7.51172 7.38687 9.32673 9.51784 11.5641 9.51784Z"/>
      <path
        d="M19.1203 10.9321C21.244 11.6378 23.6388 10.1877 24.4676 7.69431C25.297 5.20056 24.246 2.60581 22.1235 1.90014C19.9997 1.19447 17.605 2.64456 16.7768 5.13837C15.9479 7.63218 16.9978 10.2264 19.1203 10.9321Z"/>
      <path
        d="M28.7462 10.2167C27.2661 9.1232 25.0257 9.6428 23.7401 11.3795C22.4559 13.1166 22.6134 15.4116 24.0907 16.5052C25.5675 17.5993 27.8105 17.0792 29.0969 15.3429C30.381 13.6059 30.2231 11.3104 28.7462 10.2167Z"/>
    </g>
  </symbol>
</svg>
